<?xml version="1.0" encoding="utf-8"?>
<!-- Generator: Adobe Illustrator 16.0.0, SVG Export Plug-In . SVG Version: 6.00 Build 0)  -->
<!DOCTYPE svg PUBLIC "-//W3C//DTD SVG 1.1//EN" "http://www.w3.org/Graphics/SVG/1.1/DTD/svg11.dtd">
<svg version="1.1" id="图层_1" xmlns="http://www.w3.org/2000/svg" xmlns:xlink="http://www.w3.org/1999/xlink" x="0px" y="0px"
	 width="109px" height="118px" viewBox="210.5 209.5 109 118" enable-background="new 210.5 209.5 109 118" xml:space="preserve">
<g opacity="0.4">
	<path fill="none" stroke="#8493B8" stroke-width="5" stroke-linecap="round" stroke-linejoin="round" stroke-miterlimit="10" d="
		M256.8,295.983c-1.764,1.16-3.813,2.251-6.052,3.183c-7.906,3.294-11.697,1.9-12.757-1.325c-1.06-3.225,1.011-7.06,8.917-10.353
		c1.173-0.488,2.333-0.905,3.458-1.251"/>
	<g>
		<path fill="none" stroke="#8493B8" stroke-width="5" stroke-miterlimit="10" d="M262.879,246.143"/>
	</g>
	<g>
		<path fill="none" stroke="#8493B8" stroke-width="5" stroke-linecap="round" stroke-linejoin="round" stroke-miterlimit="10" d="
			M263.196,246.814c0,0-2.895-0.967-6.681-2.233c-3.786-1.265-3.026-4.354,1.756-7.071l27.997-15.828
			c4.782-2.715,10.473-0.767,12.662,4.279l12.875,29.416c2.188,5.046,0.85,7.965-3.036,6.667c-3.885-1.298-6.688-2.235-6.688-2.235"
			/>
	</g>
	
		<line fill="none" stroke="#8493B8" stroke-width="5" stroke-linecap="round" stroke-miterlimit="10" x1="250.833" y1="285.384" x2="263.511" y2="247.446"/>
	<path fill="none" stroke="#8493B8" stroke-width="5" stroke-miterlimit="10" d="M285.87,302.408"/>
	<path fill="none" stroke="#8493B8" stroke-width="5" stroke-linecap="round" stroke-miterlimit="10" d="M288.617,300.03
		c-0.052,0.071-0.106,0.142-0.161,0.211"/>
	<path fill="none" stroke="#8493B8" stroke-width="5" stroke-linecap="round" stroke-miterlimit="10" d="M301.449,260.125
		l-12.745,38.136c-0.164,0.491-0.236,0.842-0.43,1.287"/>
	<path fill="none" stroke="#8493B8" stroke-width="5" stroke-linecap="round" stroke-linejoin="round" stroke-miterlimit="10" d="
		M267.771,299.181c-0.443,1.923-1.085,3.973-1.925,6.056c-3.358,8.331-7.13,10.373-10.244,9.08
		c-3.113-1.294-4.394-5.432-1.035-13.763c0.636-1.578,1.339-3.06,2.083-4.419"/>
	<path fill="none" stroke="#8493B8" stroke-width="5" stroke-linecap="round" stroke-linejoin="round" stroke-miterlimit="10" d="
		M279.416,303.466c0.714,2.032,1.773,4.25,3.139,6.459c4.078,6.598,7.552,7.737,9.971,6.123c2.419-1.613,2.87-5.368-1.208-11.967
		c-0.916-1.48-1.891-2.832-2.879-4.02"/>
	<path fill="none" stroke="#8493B8" stroke-width="5" stroke-linecap="round" stroke-linejoin="round" stroke-miterlimit="10" d="
		M268.067,299.089c-0.763,1.833-1.438,3.893-1.973,6.103c-2.146,8.844-0.312,12.863,2.932,13.779
		c3.242,0.915,6.668-1.622,8.813-10.467c0.514-2.117,0.854-4.182,1.029-6.109"/>
	<polygon fill="#8493B8" stroke="#8493B8" stroke-width="3" stroke-miterlimit="10" points="281.664,226.627 293.569,222.17 
		300.404,232.89 	"/>
	
		<line fill="none" stroke="#8493B8" stroke-width="3" stroke-linecap="round" stroke-linejoin="round" stroke-miterlimit="10" x1="266.663" y1="261.679" x2="273.302" y2="263.898"/>
	
		<line fill="none" stroke="#8493B8" stroke-width="3" stroke-linecap="round" stroke-linejoin="round" stroke-miterlimit="10" x1="283.734" y1="267.385" x2="290.374" y2="269.604"/>
	
		<ellipse transform="matrix(0.317 -0.9484 0.9484 0.317 -79.2046 451.8778)" fill="none" stroke="#8493B8" stroke-width="2" stroke-linecap="round" stroke-miterlimit="10" cx="274.134" cy="280.93" rx="4.86" ry="3.438"/>
	<path fill="none" stroke="#8493B8" stroke-width="2" stroke-linecap="round" stroke-miterlimit="10" d="M267.492,263.143
		c-0.529,1.073-1.934,1.749-2.192,2.948c-0.277,1.29,0.842,2.38-0.024,3.682c-0.509,0.764-1.5,0.993-2.052,1.787
		c-0.619,0.892-0.834,2.126-1.179,3.148c-0.494,1.465-0.696,2.777-0.89,4.241"/>
	<path fill="none" stroke="#8493B8" stroke-width="2" stroke-linecap="round" stroke-miterlimit="10" d="M289.108,270.63
		c0.169,1.416-1.002,2.389-1.104,3.69c-0.12,1.534,1.376,2.718,0.991,4.552c-0.333,1.585-1.396,1.978-2.171,3.281
		c-1.154,1.942-1.264,3.667-0.299,5.669"/>
	<path fill="none" stroke="#8493B8" stroke-width="2" stroke-linecap="round" stroke-miterlimit="10" d="M271.522,264.49
		c-0.931,1.583-2.787,2.825-2.044,4.815c0.273,0.733,0.954,1.204,0.985,1.913c0.036,0.809-0.72,1.515-1.226,2.007
		c-1.17,1.138-1.519,2.645-2.085,4.339c-0.479,1.436-1.376,2.606-1.85,3.958"/>
	<path fill="none" stroke="#8493B8" stroke-width="2" stroke-linecap="round" stroke-miterlimit="10" d="M285.868,268.888
		c-1.286,3.042,0.307,6.045-1.507,8.977c-0.882,1.425-1.663,2.624-2.243,4.216c-0.431,1.183-0.048,2.106-0.294,3.248"/>
</g>
</svg>
