<?xml version="1.0" encoding="utf-8"?>
<!-- Generator: Adobe Illustrator 16.0.0, SVG Export Plug-In . SVG Version: 6.00 Build 0)  -->
<!DOCTYPE svg PUBLIC "-//W3C//DTD SVG 1.1//EN" "http://www.w3.org/Graphics/SVG/1.1/DTD/svg11.dtd">
<svg version="1.1" id="图层_1" xmlns="http://www.w3.org/2000/svg" xmlns:xlink="http://www.w3.org/1999/xlink" x="0px" y="0px"
	 width="197.938px" height="197.652px" viewBox="0 0 197.938 197.652" enable-background="new 0 0 197.938 197.652"
	 xml:space="preserve">
<g>
	<g>
		
			<line fill="none" stroke="#7F83B8" stroke-width="14" stroke-linecap="round" stroke-miterlimit="10" x1="33" y1="29" x2="95" y2="29"/>
		
			<line fill="none" stroke="#7F83B8" stroke-width="14" stroke-linecap="round" stroke-miterlimit="10" x1="95" y1="30" x2="95" y2="172"/>
		
			<line fill="none" stroke="#7F83B8" stroke-width="14" stroke-linecap="round" stroke-miterlimit="10" x1="95" y1="172" x2="165" y2="172"/>
	</g>
	<path fill="#FFFFFF" stroke="#7F83B8" stroke-width="14" stroke-miterlimit="10" d="M188,179c0,5.522-4.478,10-10,10h-20
		c-5.522,0-10-4.478-10-10v-20c0-5.522,4.478-10,10-10h20c5.522,0,10,4.478,10,10V179z"/>
	<path fill="#FFFFFF" stroke="#7F83B8" stroke-width="14" stroke-miterlimit="10" d="M49,38.286C49,43.651,45.654,49,40.294,49
		H19.706C14.346,49,9,43.651,9,38.286V17.714C9,12.349,14.346,9,19.706,9h20.588C45.654,9,49,12.349,49,17.714V38.286z"/>
</g>
</svg>
